<?xml version="1.0" standalone="no"?>
<!DOCTYPE svg PUBLIC "-//W3C//DTD SVG 20010904//EN"
 "http://www.w3.org/TR/2001/REC-SVG-20010904/DTD/svg10.dtd">
<svg version="1.0" xmlns="http://www.w3.org/2000/svg"
 width="378.000000pt" height="378.000000pt" viewBox="0 0 378.000000 378.000000"
 preserveAspectRatio="xMidYMid meet">
<metadata>
Created by potrace 1.14, written by Peter Selinger 2001-2017
</metadata>
<g transform="translate(0.000000,378.000000) scale(0.100000,-0.100000)"
fill="#000000" stroke="none">
<path d="M1597 3150 c-88 -22 -164 -84 -208 -170 -35 -67 -33 -186 4 -256 31
-61 85 -109 170 -154 98 -52 193 -119 238 -168 l42 -45 -6 -176 c-10 -274 -25
-338 -103 -448 -85 -119 -230 -218 -407 -278 -89 -29 -239 -55 -325 -55 -195
0 -432 72 -617 187 -66 41 -105 54 -105 34 0 -12 63 -87 103 -123 200 -181
548 -261 837 -192 127 30 118 30 124 -7 3 -19 8 -63 11 -99 19 -217 93 -399
195 -480 92 -73 241 -110 366 -90 183 29 296 117 367 286 28 66 62 226 72 342
7 74 12 80 47 61 30 -16 118 -35 226 -49 138 -18 334 8 471 61 147 56 310 189
365 296 25 50 33 83 20 83 -3 0 -35 -31 -69 -68 -84 -91 -194 -150 -395 -215
-91 -29 -103 -30 -280 -31 -163 0 -195 2 -270 23 -168 45 -325 135 -426 244
-117 125 -141 207 -151 503 l-6 191 39 42 c44 49 111 96 237 166 112 63 170
123 193 201 76 261 -207 480 -440 339 -52 -31 -56 -32 -71 -15 -42 46 -174 78
-248 60z"/>
<path d="M2507 2350 c-34 -27 -41 -53 -23 -88 25 -48 78 -57 114 -19 29 31 28
72 -3 102 -29 30 -54 31 -88 5z"/>
<path d="M1140 2340 c-25 -25 -25 -42 0 -65 45 -40 105 20 65 65 -23 25 -40
25 -65 0z"/>
<path d="M2330 2290 c-24 -24 -24 -29 -4 -58 17 -24 53 -29 72 -10 19 19 14
55 -10 72 -29 20 -34 20 -58 -4z"/>
<path d="M940 2240 c-43 -43 -10 -120 51 -120 62 0 96 74 54 120 -24 26 -79
26 -105 0z"/>
<path d="M1344 2239 c-20 -22 -13 -43 19 -63 39 -25 78 44 41 71 -25 18 -38
16 -60 -8z"/>
<path d="M2438 2169 c-22 -12 -23 -52 -3 -69 8 -7 25 -10 40 -6 19 5 25 13 25
34 0 45 -26 62 -62 41z"/>
<path d="M1160 2150 c-11 -11 -20 -29 -20 -40 0 -27 35 -60 63 -60 50 0 76 70
39 103 -25 23 -58 21 -82 -3z"/>
<path d="M2635 2096 c-19 -29 -8 -61 26 -71 45 -15 82 62 40 85 -31 16 -49 12
-66 -14z"/>
<path d="M1370 2070 c-11 -11 -20 -31 -20 -45 0 -30 32 -65 60 -65 27 0 60 35
60 63 0 27 -38 67 -63 67 -9 0 -26 -9 -37 -20z"/>
<path d="M2252 2067 c-45 -47 -14 -117 51 -117 38 0 50 7 66 38 37 71 -62 138
-117 79z"/>
<path d="M1043 2049 c-26 -9 -32 -56 -11 -77 16 -16 53 -15 68 2 29 36 -13 92
-57 75z"/>
</g>
</svg>
